<svg width="16" height="16" viewBox="0 0 16 16" fill="none" xmlns="http://www.w3.org/2000/svg">
<g id=" Round / Communication / location_on">
<path id="&#240;&#159;&#148;&#185;Icon Color" fill-rule="evenodd" clip-rule="evenodd" d="M7.99992 1.33331C5.41992 1.33331 3.33325 3.41998 3.33325 5.99998C3.33325 8.77998 6.27992 12.6133 7.49325 14.0733C7.75992 14.3933 8.24659 14.3933 8.51325 14.0733C9.71992 12.6133 12.6666 8.77998 12.6666 5.99998C12.6666 3.41998 10.5799 1.33331 7.99992 1.33331ZM7.99992 7.66665C7.07992 7.66665 6.33325 6.91998 6.33325 5.99998C6.33325 5.07998 7.07992 4.33331 7.99992 4.33331C8.91992 4.33331 9.66659 5.07998 9.66659 5.99998C9.66659 6.91998 8.91992 7.66665 7.99992 7.66665Z" fill="#F36326"/>
</g>
</svg>