<svg width="109" height="58" viewBox="0 0 109 58" fill="none" xmlns="http://www.w3.org/2000/svg">
<g filter="url(#filter0_d_419_1060)">
<path d="M26.9885 35.2502C26.7158 35.2502 26.39 35.235 26.0112 35.2047C25.6324 35.1744 25.2461 35.1214 24.8521 35.0456V32.2728C25.1551 32.3334 25.443 32.3788 25.7158 32.4091C25.9885 32.4394 26.2082 32.4546 26.3749 32.4546C27.0719 32.4546 27.5643 32.2576 27.8522 31.8637C28.1401 31.4697 28.284 30.8333 28.284 29.9545V14.9767H31.8296V29.9545C31.8296 31.1364 31.663 32.1213 31.3296 32.9092C31.0114 33.6971 30.4963 34.2804 29.7841 34.6592C29.0871 35.0532 28.1553 35.2502 26.9885 35.2502ZM40.7813 31.25C38.7813 31.25 37.2206 30.7121 36.0993 29.6363C34.9781 28.5605 34.4174 27.0983 34.4174 25.2498C34.4174 24.0528 34.6523 23.0073 35.122 22.1133C35.6069 21.2193 36.2736 20.5223 37.1221 20.0223C37.9858 19.5071 38.9934 19.2496 40.1449 19.2496C41.2813 19.2496 42.2284 19.492 42.986 19.9769C43.7587 20.4617 44.3345 21.1436 44.7133 22.0224C45.1073 22.8861 45.3042 23.8937 45.3042 25.0452V25.8407H37.2357V24.1361H42.8041L42.4178 24.4543C42.4178 23.4997 42.2208 22.78 41.8268 22.2951C41.448 21.7951 40.895 21.5451 40.1677 21.5451C39.3646 21.5451 38.7434 21.8406 38.304 22.4315C37.8797 23.0224 37.6676 23.8709 37.6676 24.977V25.3407C37.6676 26.4619 37.9403 27.2953 38.4858 27.8408C39.0464 28.3863 39.8495 28.659 40.895 28.659C41.5162 28.659 42.0996 28.5832 42.645 28.4317C43.2057 28.265 43.736 28.0075 44.236 27.659L45.1906 29.9318C44.6148 30.356 43.9481 30.6818 43.1905 30.9091C42.4481 31.1364 41.645 31.25 40.7813 31.25ZM48.3681 35.2502C48.0953 35.2502 47.7696 35.235 47.3908 35.2047C47.012 35.1744 46.6256 35.1214 46.2316 35.0456V32.2728C46.5347 32.3334 46.8226 32.3788 47.0953 32.4091C47.368 32.4394 47.5878 32.4546 47.7544 32.4546C48.4514 32.4546 48.9439 32.2576 49.2318 31.8637C49.5196 31.4697 49.6636 30.8333 49.6636 29.9545V14.9767H53.2092V29.9545C53.2092 31.1364 53.0425 32.1213 52.7092 32.9092C52.391 33.6971 51.8758 34.2804 51.1636 34.6592C50.4667 35.0532 49.5348 35.2502 48.3681 35.2502ZM60.8426 31.25C59.8426 31.25 58.9638 31.0076 58.2062 30.5227C57.4486 30.0378 56.8576 29.3484 56.4334 28.4544C56.0091 27.5605 55.797 26.4847 55.797 25.2271C55.797 23.9846 56.0091 22.9164 56.4334 22.0224C56.8576 21.1284 57.4486 20.4466 58.2062 19.9769C58.9638 19.492 59.8426 19.2496 60.8426 19.2496C61.7669 19.2496 62.5927 19.4768 63.32 19.9314C64.0625 20.3708 64.5473 20.9693 64.7746 21.7269H64.5246L64.7973 19.4768H68.0929C68.0475 19.9769 68.002 20.4844 67.9565 20.9996C67.9262 21.4996 67.9111 21.9921 67.9111 22.4769V31H64.5019L64.4791 28.8408H64.7519C64.5094 29.5681 64.0246 30.1515 63.2973 30.5909C62.57 31.0303 61.7518 31.25 60.8426 31.25ZM61.8881 28.659C62.676 28.659 63.3124 28.3787 63.7973 27.8181C64.2822 27.2574 64.5246 26.3938 64.5246 25.2271C64.5246 24.0603 64.2822 23.2042 63.7973 22.6588C63.3124 22.1133 62.676 21.8406 61.8881 21.8406C61.1002 21.8406 60.4638 22.1133 59.979 22.6588C59.4941 23.2042 59.2517 24.0603 59.2517 25.2271C59.2517 26.3938 59.4865 27.2574 59.9562 27.8181C60.4411 28.3787 61.0851 28.659 61.8881 28.659ZM76.2259 31.25C74.7258 31.25 73.597 30.8788 72.8394 30.1363C72.0818 29.3787 71.703 28.2499 71.703 26.7498V22.0451H69.5211V19.4768H71.703V16.6585L75.1349 15.8176V19.4768H78.0896V22.0451H75.1349V26.568C75.1349 27.2953 75.2864 27.7953 75.5895 28.0681C75.8925 28.3408 76.2789 28.4772 76.7486 28.4772C77.0365 28.4772 77.2714 28.462 77.4532 28.4317C77.6502 28.3863 77.8547 28.3257 78.0668 28.2499V30.9091C77.7789 31.0303 77.4759 31.1136 77.1577 31.1591C76.8395 31.2197 76.5289 31.25 76.2259 31.25ZM79.9643 31V19.4768H83.3962V31H79.9643ZM79.8279 17.5904V14.3857H83.5099V17.5904H79.8279ZM86.3148 31V22.4769C86.3148 21.9921 86.2997 21.4996 86.2694 20.9996C86.2391 20.4844 86.1936 19.9769 86.133 19.4768H89.4286L89.6786 21.6133H89.4059C89.7392 20.886 90.2317 20.3102 90.8832 19.8859C91.5347 19.4617 92.3075 19.2496 93.2015 19.2496C94.0803 19.2496 94.8152 19.4617 95.4061 19.8859C96.0122 20.295 96.444 20.939 96.7016 21.8178H96.338C96.6713 21.0299 97.2016 20.4087 97.9289 19.9541C98.6562 19.4844 99.482 19.2496 100.406 19.2496C101.709 19.2496 102.679 19.6359 103.315 20.4087C103.952 21.1814 104.27 22.3936 104.27 24.0452V31H100.838V24.1588C100.838 23.3558 100.709 22.78 100.452 22.4315C100.194 22.083 99.7775 21.9087 99.2017 21.9087C98.5199 21.9087 97.982 22.1512 97.588 22.636C97.194 23.1209 96.9971 23.7876 96.9971 24.6361V31H93.5651V24.1588C93.5651 23.3558 93.4363 22.78 93.1787 22.4315C92.9212 22.083 92.5045 21.9087 91.9287 21.9087C91.2469 21.9087 90.709 22.1512 90.315 22.636C89.9362 23.1209 89.7468 23.7876 89.7468 24.6361V31H86.3148Z" fill="black"/>
<path d="M40.3946 42.9786C40.335 42.9786 40.2718 42.9751 40.2052 42.9681C40.1421 42.9646 40.0737 42.9541 40 42.9365V42.6577C40.0666 42.6717 40.128 42.6822 40.1841 42.6892C40.2403 42.6963 40.2929 42.6998 40.342 42.6998C40.5033 42.6998 40.6261 42.6489 40.7103 42.5472C40.798 42.4455 40.8418 42.2841 40.8418 42.0631V38.2907H41.168V42.0684C41.168 42.2613 41.1382 42.4262 41.0786 42.563C41.0225 42.6998 40.9365 42.8032 40.8208 42.8734C40.7085 42.9435 40.5665 42.9786 40.3946 42.9786ZM44.0642 42.0421C43.6643 42.0421 43.3469 41.9228 43.1119 41.6843C42.8804 41.4458 42.7646 41.1143 42.7646 40.6899C42.7646 40.4093 42.8155 40.1673 42.9172 39.9638C43.0224 39.7604 43.168 39.6025 43.3539 39.4903C43.5398 39.3745 43.7555 39.3167 44.0011 39.3167C44.2361 39.3167 44.4343 39.3675 44.5956 39.4693C44.757 39.5675 44.8815 39.7095 44.9692 39.8954C45.0569 40.0778 45.1007 40.2953 45.1007 40.5478V40.6952H42.9961V40.4637H44.9008L44.8113 40.5321C44.8113 40.2339 44.7429 40.0007 44.6061 39.8323C44.4693 39.6604 44.2659 39.5745 43.9958 39.5745C43.7082 39.5745 43.4837 39.6745 43.3223 39.8744C43.161 40.0708 43.0803 40.3321 43.0803 40.6583V40.6952C43.0803 41.0459 43.1663 41.3125 43.3381 41.4949C43.5135 41.6773 43.7573 41.7685 44.0695 41.7685C44.2308 41.7685 44.3816 41.7439 44.5219 41.6948C44.6623 41.6457 44.7973 41.5615 44.9271 41.4423L45.0586 41.6791C44.9464 41.7948 44.8008 41.8842 44.6219 41.9474C44.443 42.0105 44.2571 42.0421 44.0642 42.0421ZM46.6316 42V38.1276H46.9526V42H46.6316ZM49.6703 42.0421C49.4318 42.0421 49.2248 41.9877 49.0494 41.879C48.8741 41.7703 48.739 41.6142 48.6443 41.4107C48.5496 41.2073 48.5023 40.9635 48.5023 40.6794C48.5023 40.3953 48.5496 40.1532 48.6443 39.9533C48.7425 39.7499 48.8793 39.5938 49.0547 39.485C49.2301 39.3728 49.4353 39.3167 49.6703 39.3167C49.9123 39.3167 50.121 39.3798 50.2964 39.5061C50.4753 39.6324 50.5928 39.8042 50.6489 40.0217H50.5858L50.6384 39.364H50.9488C50.9383 39.4657 50.9278 39.5657 50.9172 39.6639C50.9102 39.7621 50.9067 39.8586 50.9067 39.9533V42H50.5858V41.3423H50.6437C50.5875 41.5598 50.47 41.7317 50.2911 41.8579C50.1158 41.9807 49.9088 42.0421 49.6703 42.0421ZM49.7124 41.7685C49.9825 41.7685 50.1964 41.6755 50.3543 41.4896C50.5121 41.3037 50.591 41.0337 50.591 40.6794C50.591 40.3251 50.5121 40.055 50.3543 39.8691C50.1964 39.6832 49.9825 39.5903 49.7124 39.5903C49.4423 39.5903 49.2266 39.6832 49.0652 39.8691C48.9074 40.055 48.8285 40.3251 48.8285 40.6794C48.8285 41.0337 48.9074 41.3037 49.0652 41.4896C49.2266 41.6755 49.4423 41.7685 49.7124 41.7685ZM52.2422 43.1523C52.2001 43.1523 52.144 43.1452 52.0738 43.1312C52.0037 43.1207 51.9458 43.1067 51.9002 43.0891V42.8103C51.9423 42.8243 51.9931 42.8366 52.0528 42.8471C52.1089 42.8611 52.1598 42.8681 52.2053 42.8681C52.3632 42.8681 52.4772 42.8173 52.5473 42.7156C52.621 42.6173 52.6578 42.4577 52.6578 42.2368V39.364H52.9788V42.2789C52.9788 42.5665 52.9174 42.784 52.7946 42.9313C52.6719 43.0786 52.4877 43.1523 52.2422 43.1523ZM52.6052 38.7169V38.317H53.0314V38.7169H52.6052ZM55.6597 42.0421C55.4212 42.0421 55.2142 41.9877 55.0388 41.879C54.8635 41.7703 54.7284 41.6142 54.6337 41.4107C54.539 41.2073 54.4916 40.9635 54.4916 40.6794C54.4916 40.3953 54.539 40.1532 54.6337 39.9533C54.7319 39.7499 54.8687 39.5938 55.0441 39.485C55.2195 39.3728 55.4247 39.3167 55.6597 39.3167C55.9017 39.3167 56.1104 39.3798 56.2858 39.5061C56.4647 39.6324 56.5822 39.8042 56.6383 40.0217H56.5752L56.6278 39.364H56.9382C56.9277 39.4657 56.9172 39.5657 56.9066 39.6639C56.8996 39.7621 56.8961 39.8586 56.8961 39.9533V42H56.5752V41.3423H56.633C56.5769 41.5598 56.4594 41.7317 56.2805 41.8579C56.1051 41.9807 55.8982 42.0421 55.6597 42.0421ZM55.7018 41.7685C55.9719 41.7685 56.1858 41.6755 56.3437 41.4896C56.5015 41.3037 56.5804 41.0337 56.5804 40.6794C56.5804 40.3251 56.5015 40.055 56.3437 39.8691C56.1858 39.6832 55.9719 39.5903 55.7018 39.5903C55.4317 39.5903 55.216 39.6832 55.0546 39.8691C54.8968 40.055 54.8179 40.3251 54.8179 40.6794C54.8179 41.0337 54.8968 41.3037 55.0546 41.4896C55.216 41.6755 55.4317 41.7685 55.7018 41.7685ZM58.6104 42V38.1276H58.9313V39.9744H58.8682C58.9419 39.7604 59.0664 39.5973 59.2418 39.485C59.4171 39.3728 59.6206 39.3167 59.8521 39.3167C60.1713 39.3167 60.4063 39.4009 60.5571 39.5692C60.7115 39.7376 60.7886 39.9901 60.7886 40.3269V42H60.4677V40.3532C60.4677 40.0866 60.4151 39.8937 60.3098 39.7744C60.2046 39.6552 60.0362 39.5955 59.8047 39.5955C59.5417 39.5955 59.3295 39.6762 59.1681 39.8376C59.0103 39.9989 58.9313 40.2129 58.9313 40.4794V42H58.6104ZM64.6348 42.9786C64.5751 42.9786 64.512 42.9751 64.4453 42.9681C64.3822 42.9646 64.3138 42.9541 64.2402 42.9365V42.6577C64.3068 42.6717 64.3682 42.6822 64.4243 42.6892C64.4804 42.6963 64.533 42.6998 64.5821 42.6998C64.7435 42.6998 64.8663 42.6489 64.9504 42.5472C65.0381 42.4455 65.082 42.2841 65.082 42.0631V38.2907H65.4082V42.0684C65.4082 42.2613 65.3784 42.4262 65.3187 42.563C65.2626 42.6998 65.1767 42.8032 65.0609 42.8734C64.9487 42.9435 64.8066 42.9786 64.6348 42.9786ZM68.1728 42.0421C67.9343 42.0421 67.7274 41.9877 67.552 41.879C67.3766 41.7703 67.2416 41.6142 67.1468 41.4107C67.0521 41.2073 67.0048 40.9635 67.0048 40.6794C67.0048 40.3953 67.0521 40.1532 67.1468 39.9533C67.2451 39.7499 67.3819 39.5938 67.5572 39.485C67.7326 39.3728 67.9378 39.3167 68.1728 39.3167C68.4148 39.3167 68.6236 39.3798 68.7989 39.5061C68.9778 39.6324 69.0953 39.8042 69.1514 40.0217H69.0883L69.1409 39.364H69.4513C69.4408 39.4657 69.4303 39.5657 69.4198 39.6639C69.4128 39.7621 69.4093 39.8586 69.4093 39.9533V42H69.0883V41.3423H69.1462C69.0901 41.5598 68.9726 41.7317 68.7937 41.8579C68.6183 41.9807 68.4113 42.0421 68.1728 42.0421ZM68.2149 41.7685C68.485 41.7685 68.699 41.6755 68.8568 41.4896C69.0147 41.3037 69.0936 41.0337 69.0936 40.6794C69.0936 40.3251 69.0147 40.055 68.8568 39.8691C68.699 39.6832 68.485 39.5903 68.2149 39.5903C67.9448 39.5903 67.7291 39.6832 67.5678 39.8691C67.4099 40.055 67.331 40.3251 67.331 40.6794C67.331 41.0337 67.4099 41.3037 67.5678 41.4896C67.7291 41.6755 67.9448 41.7685 68.2149 41.7685ZM71.9759 42.0421C71.7409 42.0421 71.5602 41.9719 71.434 41.8316C71.3112 41.6913 71.2498 41.4756 71.2498 41.1845V39.6218H70.7237V39.364H71.2498V38.6274L71.5708 38.5222V39.364H72.3494V39.6218H71.5708V41.1371C71.5708 41.3581 71.6058 41.5177 71.676 41.6159C71.7461 41.7141 71.8584 41.7632 72.0127 41.7632C72.0829 41.7632 72.1443 41.7562 72.1969 41.7422C72.253 41.7282 72.3003 41.7124 72.3389 41.6948V41.979C72.2968 41.9965 72.2425 42.0105 72.1758 42.021C72.1092 42.0351 72.0425 42.0421 71.9759 42.0421ZM73.738 42V39.364H74.059V42H73.738ZM73.6854 38.7169V38.317H74.1168V38.7169H73.6854ZM75.777 42V39.9533C75.777 39.8586 75.7735 39.7621 75.7665 39.6639C75.7595 39.5657 75.749 39.4657 75.7349 39.364H76.0506L76.098 39.9691H76.0348C76.1015 39.7621 76.212 39.6025 76.3663 39.4903C76.5206 39.3745 76.7083 39.3167 76.9293 39.3167C77.1538 39.3167 77.3361 39.371 77.4765 39.4798C77.6168 39.5885 77.7097 39.7569 77.7553 39.9849H77.6764C77.7395 39.7814 77.8553 39.6201 78.0236 39.5008C78.192 39.3781 78.3902 39.3167 78.6182 39.3167C78.9058 39.3167 79.1233 39.3991 79.2706 39.564C79.4179 39.7288 79.4916 39.9866 79.4916 40.3374V42H79.1706V40.3584C79.1706 40.0919 79.1233 39.8989 79.0286 39.7797C78.9339 39.6569 78.7795 39.5955 78.5656 39.5955C78.3271 39.5955 78.1376 39.6762 77.9973 39.8376C77.8605 39.9989 77.7921 40.2164 77.7921 40.49V42H77.4712V40.3584C77.4712 40.0919 77.4238 39.8989 77.3291 39.7797C77.2344 39.6569 77.0818 39.5955 76.8714 39.5955C76.6329 39.5955 76.4435 39.6762 76.3032 39.8376C76.1664 39.9989 76.098 40.2164 76.098 40.49V42H75.777ZM84.3375 42V38.5748H82.9905V38.2907H86.0053V38.5748H84.6637V42H84.3375ZM86.9498 42V39.9796C86.9498 39.8779 86.9463 39.7762 86.9393 39.6745C86.9358 39.5692 86.927 39.4657 86.913 39.364H87.2287L87.2708 39.9691L87.2076 39.9744C87.2427 39.827 87.3058 39.706 87.397 39.6113C87.4882 39.5131 87.5935 39.4394 87.7127 39.3903C87.832 39.3412 87.9547 39.3167 88.081 39.3167C88.1266 39.3167 88.1687 39.3202 88.2073 39.3272C88.2494 39.3307 88.288 39.3377 88.323 39.3482L88.3125 39.6376C88.2704 39.6236 88.2283 39.6148 88.1862 39.6113C88.1442 39.6078 88.0986 39.6061 88.0494 39.6061C87.8916 39.6061 87.7531 39.6446 87.6338 39.7218C87.518 39.799 87.4286 39.8972 87.3655 40.0164C87.3023 40.1357 87.2708 40.2567 87.2708 40.3795V42H86.9498ZM90.6052 42.0421C90.3667 42.0421 90.1597 41.9877 89.9843 41.879C89.809 41.7703 89.6739 41.6142 89.5792 41.4107C89.4845 41.2073 89.4371 40.9635 89.4371 40.6794C89.4371 40.3953 89.4845 40.1532 89.5792 39.9533C89.6774 39.7499 89.8142 39.5938 89.9896 39.485C90.165 39.3728 90.3702 39.3167 90.6052 39.3167C90.8472 39.3167 91.0559 39.3798 91.2313 39.5061C91.4102 39.6324 91.5277 39.8042 91.5838 40.0217H91.5207L91.5733 39.364H91.8837C91.8732 39.4657 91.8627 39.5657 91.8521 39.6639C91.8451 39.7621 91.8416 39.8586 91.8416 39.9533V42H91.5207V41.3423H91.5785C91.5224 41.5598 91.4049 41.7317 91.226 41.8579C91.0507 41.9807 90.8437 42.0421 90.6052 42.0421ZM90.6473 41.7685C90.9174 41.7685 91.1313 41.6755 91.2892 41.4896C91.447 41.3037 91.5259 41.0337 91.5259 40.6794C91.5259 40.3251 91.447 40.055 91.2892 39.8691C91.1313 39.6832 90.9174 39.5903 90.6473 39.5903C90.3772 39.5903 90.1615 39.6832 90.0001 39.8691C89.8423 40.055 89.7634 40.3251 89.7634 40.6794C89.7634 41.0337 89.8423 41.3037 90.0001 41.4896C90.1615 41.6755 90.3772 41.7685 90.6473 41.7685ZM94.3089 42L93.1882 39.364H93.546L94.5457 41.8001H94.4089L95.4191 39.364H95.7611L94.6404 42H94.3089ZM98.2367 42.0421C97.8368 42.0421 97.5194 41.9228 97.2844 41.6843C97.0529 41.4458 96.9371 41.1143 96.9371 40.6899C96.9371 40.4093 96.988 40.1673 97.0897 39.9638C97.195 39.7604 97.3405 39.6025 97.5264 39.4903C97.7123 39.3745 97.928 39.3167 98.1736 39.3167C98.4086 39.3167 98.6068 39.3675 98.7681 39.4693C98.9295 39.5675 99.054 39.7095 99.1417 39.8954C99.2294 40.0778 99.2732 40.2953 99.2732 40.5478V40.6952H97.1686V40.4637H99.0733L98.9838 40.5321C98.9838 40.2339 98.9154 40.0007 98.7786 39.8323C98.6418 39.6604 98.4384 39.5745 98.1683 39.5745C97.8807 39.5745 97.6562 39.6745 97.4949 39.8744C97.3335 40.0708 97.2528 40.3321 97.2528 40.6583V40.6952C97.2528 41.0459 97.3388 41.3125 97.5106 41.4949C97.686 41.6773 97.9298 41.7685 98.242 41.7685C98.4033 41.7685 98.5542 41.7439 98.6945 41.6948C98.8348 41.6457 98.9698 41.5615 99.0996 41.4423L99.2311 41.6791C99.1189 41.7948 98.9733 41.8842 98.7944 41.9474C98.6155 42.0105 98.4296 42.0421 98.2367 42.0421ZM100.804 42V38.1276H101.125V42H100.804Z" fill="#003A4F"/>
<path fill-rule="evenodd" clip-rule="evenodd" d="M17.3502 36.2823C17.8211 38.5501 18.977 40.6179 20.661 42.2051C22.3451 43.7923 24.4757 44.8221 26.7638 45.1548C29.0519 45.4874 31.3868 45.1069 33.4517 44.0647C35.5166 43.0225 37.2115 41.3692 38.3065 39.3291H38.674C37.4983 42.4375 35.3311 45.0702 32.5089 46.8182C29.6867 48.5663 26.3675 49.332 23.0664 48.9965C19.7653 48.661 16.6672 47.243 14.2529 44.9627C11.8387 42.6823 10.2434 39.6673 9.71484 36.3856C9.71993 36.3 9.75763 36.2196 9.82017 36.1611L12.5857 34.6658H14.5824L17.2426 36.0937C17.3028 36.1535 17.3387 36.2335 17.3435 36.3182V36.2711L17.3502 36.2823Z" fill="#F26326"/>
<path d="M22.4468 24.2278L21.9732 19.1249C21.8694 17.9932 21.3463 16.9411 20.5067 16.1751C19.6671 15.4092 18.5716 14.9847 17.435 14.9849H9.10808C7.94516 14.9851 6.82426 15.4196 5.96503 16.2033C5.10581 16.987 4.57021 18.0632 4.46319 19.2212L4 24.2278C4 24.3085 4 24.3917 4 24.4724V30.7879C3.99966 31.1377 4.06826 31.4841 4.20189 31.8074C4.33551 32.1307 4.53154 32.4245 4.77877 32.6719C5.02599 32.9194 5.31957 33.1157 5.64271 33.2496C5.96586 33.3836 6.31223 33.4525 6.66203 33.4525H19.7926C20.4977 33.4505 21.1732 33.1687 21.6708 32.6692C22.1684 32.1696 22.4475 31.493 22.4468 30.7879V24.4724C22.4468 24.3917 22.4468 24.3085 22.4468 24.2278ZM7.12782 19.1926C7.15452 18.8824 7.29656 18.5936 7.52589 18.383C7.75521 18.1725 8.05515 18.0556 8.36646 18.0554H18.0934C18.4047 18.0556 18.7046 18.1725 18.934 18.383C19.1633 18.5936 19.3053 18.8824 19.332 19.1926L19.6885 23.278H6.75831L7.12782 19.1926ZM7.28655 30.2753C7.04712 30.2753 6.81308 30.2042 6.61404 30.0712C6.41499 29.9381 6.2599 29.749 6.1684 29.5277C6.07689 29.3065 6.05308 29.063 6.09998 28.8282C6.14688 28.5934 6.26238 28.3778 6.43187 28.2087C6.60135 28.0396 6.8172 27.9246 7.05209 27.8782C7.28698 27.8318 7.53035 27.8561 7.75141 27.9481C7.97246 28.0401 8.16126 28.1956 8.29391 28.3949C8.42655 28.5942 8.49708 28.8284 8.49657 29.0679C8.49623 29.2276 8.46425 29.3858 8.40248 29.5331C8.3407 29.6805 8.25036 29.8141 8.13665 29.9264C8.02294 30.0387 7.88813 30.1273 7.73999 30.1872C7.59185 30.247 7.43332 30.277 7.27354 30.2753H7.28655ZM19.4699 30.4652C19.2306 30.4652 18.9967 30.3943 18.7977 30.2613C18.5987 30.1283 18.4436 29.9394 18.352 29.7183C18.2605 29.4972 18.2365 29.2539 18.2832 29.0192C18.3299 28.7844 18.4451 28.5688 18.6143 28.3996C18.7836 28.2304 18.9992 28.1151 19.2339 28.0684C19.4686 28.0218 19.7119 28.0457 19.933 28.1373C20.1541 28.2289 20.3431 28.384 20.476 28.583C20.609 28.782 20.68 29.0159 20.68 29.2552C20.68 29.4152 20.6482 29.5736 20.5866 29.7213C20.525 29.8689 20.4347 30.0029 20.321 30.1155C20.2072 30.228 20.0723 30.3168 19.924 30.3769C19.7757 30.4369 19.6169 30.467 19.4569 30.4652H19.4699Z" fill="#F26326"/>
<path d="M6.05273 34.0199C6.05273 34.1669 6.11113 34.3079 6.21507 34.4119C6.31902 34.5158 6.46 34.5742 6.607 34.5742H7.95233C8.09933 34.5742 8.2403 34.5158 8.34425 34.4119C8.44819 34.3079 8.50659 34.1669 8.50659 34.0199V32.1204H6.05273V34.0199Z" fill="#F26326"/>
<path d="M18.2285 34.0199C18.2285 34.093 18.2429 34.1652 18.271 34.2327C18.299 34.3001 18.34 34.3613 18.3918 34.4128C18.4435 34.4643 18.5049 34.5051 18.5725 34.5328C18.64 34.5605 18.7124 34.5746 18.7854 34.5742H20.1307C20.2777 34.5742 20.4187 34.5158 20.5226 34.4119C20.6266 34.3079 20.685 34.1669 20.685 34.0199V32.1204H18.2285V34.0199Z" fill="#F26326"/>
</g>
<defs>
<filter id="filter0_d_419_1060" x="-4" y="0" width="115" height="64" filterUnits="userSpaceOnUse" color-interpolation-filters="sRGB">
<feFlood flood-opacity="0" result="BackgroundImageFix"/>
<feColorMatrix in="SourceAlpha" type="matrix" values="0 0 0 0 0 0 0 0 0 0 0 0 0 0 0 0 0 0 127 0" result="hardAlpha"/>
<feOffset dy="4"/>
<feGaussianBlur stdDeviation="2"/>
<feComposite in2="hardAlpha" operator="out"/>
<feColorMatrix type="matrix" values="0 0 0 0 0 0 0 0 0 0 0 0 0 0 0 0 0 0 0.25 0"/>
<feBlend mode="normal" in2="BackgroundImageFix" result="effect1_dropShadow_419_1060"/>
<feBlend mode="normal" in="SourceGraphic" in2="effect1_dropShadow_419_1060" result="shape"/>
</filter>
</defs>
</svg>
